<?xml version="1.0" encoding="iso-8859-1"?>
<!-- Generator: Adobe Illustrator 19.0.0, SVG Export Plug-In . SVG Version: 6.00 Build 0)  -->
<svg version="1.1" id="Capa_1" xmlns="http://www.w3.org/2000/svg" xmlns:xlink="http://www.w3.org/1999/xlink" x="0px" y="0px"
	 viewBox="0 0 512 512" style="enable-background:new 0 0 512 512;" xml:space="preserve" width="512" height="512">
<polygon style="fill:#EB874B;" points="512,245.556 371.069,208.064 442.546,82.405 310.181,143.136 283.136,1.508 221.273,132.046 
	108.361,40.717 145.946,179.982 0,181.687 119.446,264.514 8.756,358.455 154.173,346.089 130.531,488.311 233.878,386.538 
	308.347,510.492 321.266,366.933 459.001,414.621 375.446,296.448 "/>
<polygon style="fill:#FFC850;" points="421.161,249.262 330.238,225.073 376.352,144.003 290.956,183.185 273.507,91.811 
	233.595,176.029 160.749,117.108 184.997,206.956 90.839,208.056 167.901,261.493 96.488,322.1 190.305,314.122 175.052,405.878 
	241.728,340.218 289.772,420.189 298.107,327.57 386.968,358.336 333.062,282.096 "/>
<polygon style="fill:#FFDC64;" points="357.161,251.873 301.471,237.058 329.716,187.402 277.41,211.401 266.723,155.434 
	242.277,207.018 197.659,170.929 212.511,225.961 154.839,226.634 202.039,259.364 158.299,296.486 215.762,291.6 206.42,347.8 
	247.258,307.584 276.685,356.566 281.79,299.836 336.218,318.681 303.2,271.984 "/>
<polygon style="fill:#FFF082;" points="296.258,254.358 274.095,248.462 285.336,228.701 264.52,238.251 260.267,215.979 
	250.539,236.507 232.783,222.145 238.693,244.046 215.742,244.314 234.526,257.339 217.119,272.112 239.987,270.167 
	236.269,292.533 252.521,276.528 264.232,296.021 266.264,273.445 287.923,280.944 274.784,262.361 "/>
<g>
</g>
<g>
</g>
<g>
</g>
<g>
</g>
<g>
</g>
<g>
</g>
<g>
</g>
<g>
</g>
<g>
</g>
<g>
</g>
<g>
</g>
<g>
</g>
<g>
</g>
<g>
</g>
<g>
</g>
</svg>
