<?xml version="1.0" encoding="iso-8859-1"?>
<!-- Generator: Adobe Illustrator 16.0.0, SVG Export Plug-In . SVG Version: 6.00 Build 0)  -->
<!DOCTYPE svg PUBLIC "-//W3C//DTD SVG 1.1//EN" "http://www.w3.org/Graphics/SVG/1.1/DTD/svg11.dtd">
<svg version="1.1" id="Capa_1" xmlns="http://www.w3.org/2000/svg" xmlns:xlink="http://www.w3.org/1999/xlink" x="0px" y="0px"
	 width="403.288px" height="403.288px" viewBox="0 0 403.288 403.288" style="enable-background:new 0 0 403.288 403.288;"
	 xml:space="preserve">
<g>
	<g>
		<path d="M166.801,224.592c0,6.791-5.509,12.298-12.298,12.298c-6.794,0-12.298-5.507-12.298-12.298v-10.646h-12.298v10.646
			c0,6.791-5.509,12.298-12.298,12.298c-6.794,0-12.297-5.507-12.297-12.298v-10.646H76.621
			c7.13,58.253,54.055,104.357,112.722,110.05v-28.066h-12.706c-6.788,0-12.298-5.513-12.298-12.298s5.51-12.298,12.298-12.298
			h12.706v-12.298h-12.706c-6.788,0-12.298-5.513-12.298-12.298s5.51-12.298,12.298-12.298h12.706v-20.494h-22.542V224.592z"/>
		<path d="M297.97,224.592c0,6.791-5.5,12.298-12.298,12.298c-6.785,0-12.298-5.507-12.298-12.298v-10.646h-12.298v10.646
			c0,6.791-5.5,12.298-12.298,12.298c-6.785,0-12.298-5.507-12.298-12.298v-10.646h-22.542v20.494h12.706
			c6.786,0,12.298,5.513,12.298,12.298s-5.512,12.298-12.298,12.298h-12.706v12.298h12.706c6.786,0,12.298,5.513,12.298,12.298
			s-5.512,12.298-12.298,12.298h-12.706v28.066c58.667-5.705,105.588-51.81,112.723-110.05H297.97V224.592z"/>
		<path d="M76.054,189.35h29.258v-14.757c0-6.789,5.503-12.298,12.297-12.298c6.789,0,12.298,5.509,12.298,12.298v14.757h12.298
			v-14.757c0-6.789,5.504-12.298,12.298-12.298c6.789,0,12.298,5.509,12.298,12.298v14.757h22.542v-24.596h-12.706
			c-6.788,0-12.298-5.51-12.298-12.298s5.51-12.298,12.298-12.298h12.706V127.86h-12.706c-6.788,0-12.298-5.509-12.298-12.298
			c0-6.788,5.51-12.298,12.298-12.298h12.706V73.147C128.628,79.051,80.506,128.224,76.054,189.35z"/>
		<path d="M213.938,73.142v30.117h12.706c6.786,0,12.298,5.509,12.298,12.298c0,6.788-5.512,12.298-12.298,12.298h-12.706v12.298
			h12.706c6.786,0,12.298,5.509,12.298,12.298c0,6.788-5.512,12.298-12.298,12.298h-12.706v24.596h22.542v-14.757
			c0-6.789,5.513-12.298,12.298-12.298c6.798,0,12.298,5.509,12.298,12.298v14.757h12.298v-14.757
			c0-6.789,5.513-12.298,12.298-12.298c6.798,0,12.298,5.509,12.298,12.298v14.757h29.256
			C322.77,128.224,274.653,79.051,213.938,73.142z"/>
		<path d="M201.641,0C90.456,0,0,90.457,0,201.642c0,111.19,90.456,201.646,201.641,201.646
			c111.19,0,201.647-90.456,201.647-201.646C403.288,90.457,312.831,0,201.641,0z M383.033,213.945h-31.524
			c-7.314,71.847-65.32,128.862-137.57,134.735v34.359c0,6.791-5.51,12.298-12.298,12.298s-12.298-5.507-12.298-12.298v-34.359
			c-72.25-5.873-130.259-62.9-137.57-134.735H20.248c-6.789,0-12.298-5.507-12.298-12.298c0-6.789,5.509-12.298,12.298-12.298
			h31.057c4.531-74.703,63.747-134.844,138.038-140.885v-28.21c0-6.789,5.51-12.298,12.298-12.298s12.298,5.509,12.298,12.298v28.21
			c74.291,6.041,133.505,66.176,138.038,140.885h31.057c6.786,0,12.298,5.509,12.298,12.298
			C395.331,208.438,389.819,213.945,383.033,213.945z"/>
	</g>
</g>
<g>
</g>
<g>
</g>
<g>
</g>
<g>
</g>
<g>
</g>
<g>
</g>
<g>
</g>
<g>
</g>
<g>
</g>
<g>
</g>
<g>
</g>
<g>
</g>
<g>
</g>
<g>
</g>
<g>
</g>
</svg>
