<svg height="512" viewBox="0 0 64 64" width="512" xmlns="http://www.w3.org/2000/svg"><g id="Filled_outline" data-name="Filled outline"><path d="m55 38a23 23 0 0 1 -46 0c0-16 23-35 23-35s23 19 23 35z" fill="#87cee9"/><path d="m53.214 46.9a4.677 4.677 0 0 1 -.97.1c-3.378 0-3.378-3-6.756-3s-3.376 3-6.751 3-3.373-3-6.746-3-3.374 3-6.749 3-3.374-3-6.747-3-3.374 3-6.748 3a4.664 4.664 0 0 1 -.96-.1 23.008 23.008 0 0 0 42.427 0z" fill="#87cee9"/><path d="m45.488 32c-3.376 0-3.376 3-6.751 3s-3.373-3-6.746-3-3.374 3-6.749 3-3.374-3-6.747-3-3.374 3-6.748 3a4.05 4.05 0 0 1 -2.357-.682 19.083 19.083 0 0 0 -.39 3.682c0 .354.011.706.027 1.056a4.1 4.1 0 0 0 2.72.944c3.374 0 3.374-3 6.748-3s3.373 3 6.747 3 3.375-3 6.749-3 3.373 3 6.746 3 3.375-3 6.751-3 3.378 3 6.756 3a4.108 4.108 0 0 0 2.729-.948c.016-.349.027-.7.027-1.052a19.037 19.037 0 0 0 -.391-3.685 4.057 4.057 0 0 1 -2.365.685c-3.378 0-3.378-3-6.756-3z" fill="#e6f1fd"/><path d="m52.244 40c-3.378 0-3.378-3-6.756-3s-3.376 3-6.751 3-3.373-3-6.746-3-3.374 3-6.749 3-3.374-3-6.747-3-3.374 3-6.748 3a4.1 4.1 0 0 1 -2.72-.944 22.876 22.876 0 0 0 1.76 7.844 4.664 4.664 0 0 0 .96.1c3.374 0 3.374-3 6.748-3s3.373 3 6.747 3 3.375-3 6.749-3 3.373 3 6.746 3 3.375-3 6.751-3 3.378 3 6.756 3a4.677 4.677 0 0 0 .97-.1 22.874 22.874 0 0 0 1.759-7.847 4.108 4.108 0 0 1 -2.729.947z" fill="#32b1cc"/><g fill="#e6f1fd"><path d="m32 58a20.065 20.065 0 0 1 -16.841-9.46l1.682-1.08a18.318 18.318 0 0 0 15.159 8.54z"/><path d="m34 56h2v2h-2z"/><path d="m33 19.25a4.008 4.008 0 0 1 -8 0c0-2.071 4-6.25 4-6.25s4 4.179 4 6.25z"/><path d="m41 25.143a3 3 0 0 1 -6 0c0-1.578 3-5.143 3-5.143s3 3.565 3 5.143z"/><path d="m47.122 28.479c-5.845-10.715-15.692-19.647-15.791-19.736l1.338-1.486c.414.372 10.2 9.241 16.209 20.264z"/><path d="m20 22h2v2h-2z"/><path d="m24 26h2v2h-2z"/></g><path d="m56 38c0-16.284-22.409-34.983-23.363-35.771a1 1 0 0 0 -1.274 0c-.954.788-23.363 19.487-23.363 35.771a24 24 0 0 0 48 0zm-3.756 8a3.643 3.643 0 0 1 -2.714-1.248 5.535 5.535 0 0 0 -8.082 0 3.568 3.568 0 0 1 -5.42 0 5.527 5.527 0 0 0 -8.076 0 3.567 3.567 0 0 1 -5.419 0 5.527 5.527 0 0 0 -8.076 0 3.639 3.639 0 0 1 -2.71 1.248c-.082 0-.164-.02-.245-.026a21.813 21.813 0 0 1 -1.32-5.189 5.6 5.6 0 0 0 5.6-1.538 3.566 3.566 0 0 1 5.418 0 5.528 5.528 0 0 0 8.077 0 3.566 3.566 0 0 1 5.418 0 5.528 5.528 0 0 0 8.077 0 3.574 3.574 0 0 1 5.426 0 5.575 5.575 0 0 0 4.046 1.753 5.492 5.492 0 0 0 1.574-.218 21.782 21.782 0 0 1 -1.32 5.191c-.084.006-.167.027-.254.027zm1.756-8c0 .176-.009.349-.013.523a3.053 3.053 0 0 1 -1.743.477 3.643 3.643 0 0 1 -2.714-1.248 5.535 5.535 0 0 0 -8.082 0 3.568 3.568 0 0 1 -5.42 0 5.527 5.527 0 0 0 -8.076 0 3.567 3.567 0 0 1 -5.419 0 5.527 5.527 0 0 0 -8.076 0 3.639 3.639 0 0 1 -2.71 1.248 3.037 3.037 0 0 1 -1.734-.473c0-.176-.013-.35-.013-.527a17.311 17.311 0 0 1 .159-2.224 5.427 5.427 0 0 0 1.588.224 5.568 5.568 0 0 0 4.039-1.753 3.566 3.566 0 0 1 5.418 0 5.528 5.528 0 0 0 8.077 0 3.566 3.566 0 0 1 5.418 0 5.528 5.528 0 0 0 8.077 0 3.574 3.574 0 0 1 5.426 0 5.575 5.575 0 0 0 4.042 1.753 5.443 5.443 0 0 0 1.6-.226 17.166 17.166 0 0 1 .156 2.226zm-22-33.685c3.311 2.877 18.481 16.629 21.478 29.464a3.252 3.252 0 0 1 -1.234.221 3.643 3.643 0 0 1 -2.714-1.248 5.535 5.535 0 0 0 -8.082 0 3.568 3.568 0 0 1 -5.42 0 5.527 5.527 0 0 0 -8.076 0 3.567 3.567 0 0 1 -5.419 0 5.527 5.527 0 0 0 -8.076 0 3.639 3.639 0 0 1 -2.71 1.248 3.26 3.26 0 0 1 -1.226-.218c2.996-12.837 18.167-26.59 21.479-29.467zm-19.606 43.647a5.735 5.735 0 0 0 3.392-1.715 3.566 3.566 0 0 1 5.418 0 5.528 5.528 0 0 0 8.077 0 3.566 3.566 0 0 1 5.418 0 5.528 5.528 0 0 0 8.077 0 3.574 3.574 0 0 1 5.426 0 5.736 5.736 0 0 0 3.4 1.714 21.984 21.984 0 0 1 -39.211 0z"/><path d="m32 56a18.318 18.318 0 0 1 -15.159-8.54l-1.682 1.08a20.065 20.065 0 0 0 16.841 9.46z"/><path d="m34 56h2v2h-2z"/><path d="m29 24a4.885 4.885 0 0 0 5-4.75c0-2.354-3.563-6.195-4.278-6.941l-.722-.755-.722.755c-.715.746-4.278 4.591-4.278 6.941a4.885 4.885 0 0 0 5 4.75zm0-9.517c1.4 1.6 3 3.8 3 4.767a3.011 3.011 0 0 1 -6 0c0-.964 1.6-3.163 3-4.767z"/><path d="m38 18.447-.765.909c-.759.9-3.235 3.984-3.235 5.787a4 4 0 0 0 8 0c0-1.8-2.476-4.885-3.235-5.787zm0 8.553a1.935 1.935 0 0 1 -2-1.857c0-.586.936-2.129 2-3.538 1.064 1.409 2 2.952 2 3.538a1.935 1.935 0 0 1 -2 1.857z"/><path d="m47.122 28.479 1.756-.958c-6.013-11.021-15.795-19.892-16.209-20.264l-1.338 1.486c.099.089 9.946 9.021 15.791 19.736z"/><path d="m20 22h2v2h-2z"/><path d="m24 26h2v2h-2z"/></g></svg>